G04 ================== begin FILE IDENTIFICATION RECORD ==================*
G04 Layout Name:  C:/ORCAD/PROJECTS/TRS80_POWER/allegro/TRS80_POWER.brd*
G04 Film Name:    PROMASK*
G04 File Format:  Gerber RS274X*
G04 File Origin:  Cadence Allegro 16.6-S012*
G04 Origin Date:  Thu Jan 16 08:28:11 2014*
G04 *
G04 Layer:  VIA CLASS/SOLDERMASK_TOP*
G04 Layer:  PIN/SOLDERMASK_TOP*
G04 Layer:  PACKAGE GEOMETRY/SOLDERMASK_TOP*
G04 *
G04 Offset:    (0.000 0.000)*
G04 Mirror:    No*
G04 Mode:      Positive*
G04 Rotation:  0*
G04 FullContactRelief:  No*
G04 UndefLineWidth:     0.000*
G04 ================== end FILE IDENTIFICATION RECORD ====================*
%FSLAX25Y25*MOIN*%
%IR0*IPPOS*OFA0.00000B0.00000*MIA0B0*SFA1.00000B1.00000*%
%ADD15C,.21*%
%ADD16C,.141728*%
%ADD13R,.358272X.122051*%
%ADD14R,.122051X.358272*%
%ADD11C,.072831*%
%ADD10C,.07874*%
%ADD12R,.072831X.072831*%
%LPD*%
G75*
G54D10*
X40000Y290000D03*
Y350000D03*
X70000Y290000D03*
Y350000D03*
X140000Y220000D03*
Y390000D03*
X170000Y220000D03*
Y390000D03*
X200000D03*
X220000Y220000D03*
X230000Y390000D03*
X250000Y220000D03*
X300000Y280000D03*
Y330000D03*
X330000Y280000D03*
Y330000D03*
G54D11*
X120000Y290000D03*
Y300000D03*
X190000Y290000D03*
Y300000D03*
X260000D03*
Y310000D03*
G54D12*
X120000D03*
X190000D03*
X260000Y320000D03*
G54D13*
X174606Y81457D03*
Y152716D03*
X230906Y81457D03*
G54D14*
X239961Y146811D03*
G54D15*
X350000Y390000D03*
X380000Y20000D03*
X390000Y390000D03*
X420000D03*
X450000D03*
X470000Y20000D03*
X540000Y80000D03*
Y120000D03*
G54D16*
X392874Y134173D03*
Y340472D03*
X419120Y134173D03*
Y340472D03*
X445367Y134173D03*
Y340472D03*
X474724Y134173D03*
Y340472D03*
M02*
