G04 ================== begin FILE IDENTIFICATION RECORD ==================*
G04 Layout Name:  C:/ORCAD/PROJECTS/TRS80_POWER/allegro/TRS80_POWER.brd*
G04 Film Name:    SILK*
G04 File Format:  Gerber RS274X*
G04 File Origin:  Cadence Allegro 16.6-S012*
G04 Origin Date:  Thu Jan 16 08:33:54 2014*
G04 *
G04 Layer:  MANUFACTURING/AUTOSILK_TOP*
G04 *
G04 Offset:    (0.000 0.000)*
G04 Mirror:    No*
G04 Mode:      Positive*
G04 Rotation:  0*
G04 FullContactRelief:  No*
G04 UndefLineWidth:     10.000*
G04 ================== end FILE IDENTIFICATION RECORD ====================*
%FSLAX25Y25*MOIN*%
%IR0*IPPOS*OFA0.00000B0.00000*MIA0B0*SFA1.00000B1.00000*%
%ADD10C,.01*%
G75*
%LPD*%
G75*
G54D10*
G01X57507Y268833D02*
X60293Y272500D01*
G01X58900Y273167D02*
Y268167D01*
G01X60293Y268833D02*
X57507Y272500D01*
G01X57000Y270667D02*
X60800D01*
G01X62607Y268833D02*
X65393Y272500D01*
G01X64000Y273167D02*
Y268167D01*
G01X65393Y268833D02*
X62607Y272500D01*
G01X62100Y270667D02*
X65900D01*
G01X67707Y268833D02*
X70493Y272500D01*
G01X69100Y273167D02*
Y268167D01*
G01X70493Y268833D02*
X67707Y272500D01*
G01X67200Y270667D02*
X71000D01*
G01X48843Y282083D02*
X48463Y282333D01*
X48020Y282500D01*
X47513D01*
X46943Y282250D01*
X46500Y281833D01*
X46183Y281333D01*
X45930Y280500D01*
X45867Y279750D01*
X45993Y279000D01*
X46183Y278500D01*
X46563Y278000D01*
X47007Y277667D01*
X47450Y277500D01*
X47893D01*
X48337Y277667D01*
X48717Y277917D01*
X49033Y278250D01*
G01X52550Y277500D02*
X52993Y277583D01*
X53500Y277833D01*
X53817Y278250D01*
X53943Y278833D01*
X53817Y279417D01*
X53437Y279917D01*
X52867Y280167D01*
X52233D01*
X51853Y280333D01*
X51537Y280750D01*
X51410Y281333D01*
X51600Y281917D01*
X52043Y282333D01*
X52550Y282500D01*
X53057Y282333D01*
X53500Y281917D01*
X53690Y281333D01*
X53563Y280750D01*
X53247Y280333D01*
X52867Y280167D01*
X52233D01*
X51663Y279917D01*
X51283Y279417D01*
X51157Y278833D01*
X51283Y278250D01*
X51600Y277833D01*
X52107Y277583D01*
X52550Y277500D01*
G01X47450Y272500D02*
Y277500D01*
X46690Y276500D01*
G01Y272500D02*
X48210D01*
G01X51473D02*
Y275833D01*
G01Y275000D02*
X51727Y275417D01*
X52107Y275750D01*
X52613Y275833D01*
X53057Y275750D01*
X53437Y275417D01*
X53627Y274833D01*
Y272500D01*
G01X37500Y293041D02*
Y295000D01*
X72500D01*
Y293041D01*
G01Y286959D02*
Y285000D01*
X37500D01*
Y286959D01*
G01X48843Y342083D02*
X48463Y342333D01*
X48020Y342500D01*
X47513D01*
X46943Y342250D01*
X46500Y341833D01*
X46183Y341333D01*
X45930Y340500D01*
X45867Y339750D01*
X45993Y339000D01*
X46183Y338500D01*
X46563Y338000D01*
X47007Y337667D01*
X47450Y337500D01*
X47893D01*
X48337Y337667D01*
X48717Y337917D01*
X49033Y338250D01*
G01X52423Y337500D02*
X52550Y338583D01*
X52740Y339500D01*
X52993Y340333D01*
X53310Y341250D01*
X53817Y342500D01*
X51283D01*
G01X40560Y332500D02*
Y337500D01*
X38217Y333917D01*
X41383D01*
G01X44900Y332333D02*
X44773Y332417D01*
Y332583D01*
X44900Y332667D01*
X45027Y332583D01*
Y332417D01*
X44900Y332333D01*
G01X49873Y332500D02*
X50000Y333583D01*
X50190Y334500D01*
X50443Y335333D01*
X50760Y336250D01*
X51267Y337500D01*
X48733D01*
G01X54023Y335833D02*
Y333500D01*
X54277Y332917D01*
X54657Y332583D01*
X55100Y332500D01*
X55543Y332583D01*
X55923Y332917D01*
X56177Y333500D01*
G01Y332500D02*
Y335833D01*
G01X58997Y332500D02*
Y337500D01*
X61403D01*
G01X60517Y335083D02*
X58997D01*
G01X37500Y353041D02*
Y355000D01*
X72500D01*
Y353041D01*
G01Y346959D02*
Y345000D01*
X37500D01*
Y346959D01*
G01X61007Y277333D02*
X63793Y281000D01*
G01X62400Y281667D02*
Y276667D01*
G01X63793Y277333D02*
X61007Y281000D01*
G01X60500Y279167D02*
X64300D01*
G01X66107Y277333D02*
X68893Y281000D01*
G01X67500Y281667D02*
Y276667D01*
G01X68893Y277333D02*
X66107Y281000D01*
G01X65600Y279167D02*
X69400D01*
G01X71207Y277333D02*
X73993Y281000D01*
G01X72600Y281667D02*
Y276667D01*
G01X73993Y277333D02*
X71207Y281000D01*
G01X70700Y279167D02*
X74500D01*
G01X65667Y342160D02*
X69333Y339373D01*
G01X70000Y340767D02*
X65000D01*
G01X65667Y339373D02*
X69333Y342160D01*
G01X67500Y342667D02*
Y338867D01*
G01X65667Y337060D02*
X69333Y334273D01*
G01X70000Y335667D02*
X65000D01*
G01X65667Y334273D02*
X69333Y337060D01*
G01X67500Y337567D02*
Y333767D01*
G01X65667Y331960D02*
X69333Y329173D01*
G01X70000Y330567D02*
X65000D01*
G01X65667Y329173D02*
X69333Y331960D01*
G01X67500Y332467D02*
Y328667D01*
G01X72667Y333660D02*
X76333Y330873D01*
G01X77000Y332267D02*
X72000D01*
G01X72667Y330873D02*
X76333Y333660D01*
G01X74500Y334167D02*
Y330367D01*
G01X72667Y328560D02*
X76333Y325773D01*
G01X77000Y327167D02*
X72000D01*
G01X72667Y325773D02*
X76333Y328560D01*
G01X74500Y329067D02*
Y325267D01*
G01X72667Y323460D02*
X76333Y320673D01*
G01X77000Y322067D02*
X72000D01*
G01X72667Y320673D02*
X76333Y323460D01*
G01X74500Y323967D02*
Y320167D01*
G01X111732Y278996D02*
X128268D01*
Y321004D01*
X111732D01*
Y278996D01*
G01X148843Y212083D02*
X148463Y212333D01*
X148020Y212500D01*
X147513D01*
X146943Y212250D01*
X146500Y211833D01*
X146183Y211333D01*
X145930Y210500D01*
X145867Y209750D01*
X145993Y209000D01*
X146183Y208500D01*
X146563Y208000D01*
X147007Y207667D01*
X147450Y207500D01*
X147893D01*
X148337Y207667D01*
X148717Y207917D01*
X149033Y208250D01*
G01X151347Y211667D02*
X151727Y212167D01*
X152170Y212417D01*
X152677Y212500D01*
X153310Y212333D01*
X153753Y211917D01*
X153880Y211417D01*
X153817Y210916D01*
X153563Y210500D01*
X152297Y209667D01*
X151727Y209083D01*
X151347Y208250D01*
X151220Y207500D01*
X153880D01*
G01X142350Y202500D02*
Y207500D01*
X141590Y206500D01*
G01Y202500D02*
X143110D01*
G01X147450Y207500D02*
X146943Y207333D01*
X146563Y206917D01*
X146310Y206417D01*
X146120Y205750D01*
X146057Y205000D01*
X146120Y204250D01*
X146310Y203583D01*
X146563Y203083D01*
X146943Y202667D01*
X147450Y202500D01*
X147957Y202667D01*
X148337Y203083D01*
X148590Y203583D01*
X148780Y204250D01*
X148843Y205000D01*
X148780Y205750D01*
X148590Y206417D01*
X148337Y206917D01*
X147957Y207333D01*
X147450Y207500D01*
G01X151473Y205833D02*
Y203500D01*
X151727Y202917D01*
X152107Y202583D01*
X152550Y202500D01*
X152993Y202583D01*
X153373Y202917D01*
X153627Y203500D01*
G01Y202500D02*
Y205833D01*
G01X156447Y202500D02*
Y207500D01*
X158853D01*
G01X157967Y205083D02*
X156447D01*
G01X134273Y200000D02*
X136513D01*
G01X135300Y201625D02*
Y198375D01*
G01X137500Y223041D02*
Y225000D01*
X172500D01*
Y223041D01*
G01Y216959D02*
Y215000D01*
X137500D01*
Y216959D01*
G01X130428Y305000D02*
Y301417D01*
X130681Y300666D01*
X131188Y300167D01*
X131821Y300000D01*
X132454Y300167D01*
X132961Y300666D01*
X133214Y301417D01*
Y305000D01*
G01X135526Y301000D02*
X135906Y300417D01*
X136413Y300083D01*
X136983Y300000D01*
X137489Y300083D01*
X137996Y300500D01*
X138312Y301000D01*
X138376Y301500D01*
X138249Y302083D01*
X137806Y302500D01*
X137362Y302667D01*
X136793D01*
G01X137362D02*
X137742Y302917D01*
X138059Y303333D01*
X138186Y303833D01*
X138059Y304333D01*
X137742Y304750D01*
X137173Y305000D01*
X136603Y304917D01*
X136033Y304583D01*
G01X148843Y382083D02*
X148463Y382333D01*
X148020Y382500D01*
X147513D01*
X146943Y382250D01*
X146500Y381833D01*
X146183Y381333D01*
X145930Y380500D01*
X145867Y379750D01*
X145993Y379000D01*
X146183Y378500D01*
X146563Y378000D01*
X147007Y377667D01*
X147450Y377500D01*
X147893D01*
X148337Y377667D01*
X148717Y377917D01*
X149033Y378250D01*
G01X151347Y379583D02*
X151790Y380167D01*
X152170Y380500D01*
X152677Y380667D01*
X153120Y380500D01*
X153437Y380167D01*
X153690Y379667D01*
X153753Y379083D01*
X153690Y378583D01*
X153437Y378083D01*
X153057Y377667D01*
X152613Y377500D01*
X152107Y377667D01*
X151663Y378166D01*
X151410Y378917D01*
X151347Y379750D01*
X151473Y380833D01*
X151663Y381417D01*
X151980Y382000D01*
X152423Y382417D01*
X152867Y382500D01*
X153310Y382333D01*
X153627Y381917D01*
G01X142350Y372500D02*
Y377500D01*
X141590Y376500D01*
G01Y372500D02*
X143110D01*
G01X147450Y377500D02*
X146943Y377333D01*
X146563Y376917D01*
X146310Y376417D01*
X146120Y375750D01*
X146057Y375000D01*
X146120Y374250D01*
X146310Y373583D01*
X146563Y373083D01*
X146943Y372667D01*
X147450Y372500D01*
X147957Y372667D01*
X148337Y373083D01*
X148590Y373583D01*
X148780Y374250D01*
X148843Y375000D01*
X148780Y375750D01*
X148590Y376417D01*
X148337Y376917D01*
X147957Y377333D01*
X147450Y377500D01*
G01X151473Y375833D02*
Y373500D01*
X151727Y372917D01*
X152107Y372583D01*
X152550Y372500D01*
X152993Y372583D01*
X153373Y372917D01*
X153627Y373500D01*
G01Y372500D02*
Y375833D01*
G01X156447Y372500D02*
Y377500D01*
X158853D01*
G01X157967Y375083D02*
X156447D01*
G01X134273Y370000D02*
X136513D01*
G01X135300Y371625D02*
Y368375D01*
G01X172500Y386959D02*
Y385000D01*
X137500D01*
Y386959D01*
G01Y393041D02*
Y395000D01*
X172500D01*
Y393041D01*
G01X161007Y207333D02*
X163793Y211000D01*
G01X162400Y211667D02*
Y206667D01*
G01X163793Y207333D02*
X161007Y211000D01*
G01X160500Y209167D02*
X164300D01*
G01X166107Y207333D02*
X168893Y211000D01*
G01X167500Y211667D02*
Y206667D01*
G01X168893Y207333D02*
X166107Y211000D01*
G01X165600Y209167D02*
X169400D01*
G01X171207Y207333D02*
X173993Y211000D01*
G01X172600Y211667D02*
Y206667D01*
G01X173993Y207333D02*
X171207Y211000D01*
G01X170700Y209167D02*
X174500D01*
G01X161007Y198833D02*
X163793Y202500D01*
G01X162400Y203167D02*
Y198167D01*
G01X163793Y198833D02*
X161007Y202500D01*
G01X160500Y200667D02*
X164300D01*
G01X166107Y198833D02*
X168893Y202500D01*
G01X167500Y203167D02*
Y198167D01*
G01X168893Y198833D02*
X166107Y202500D01*
G01X165600Y200667D02*
X169400D01*
G01X171207Y198833D02*
X173993Y202500D01*
G01X172600Y203167D02*
Y198167D01*
G01X173993Y198833D02*
X171207Y202500D01*
G01X170700Y200667D02*
X174500D01*
G01X161007Y377333D02*
X163793Y381000D01*
G01X162400Y381667D02*
Y376667D01*
G01X163793Y377333D02*
X161007Y381000D01*
G01X160500Y379167D02*
X164300D01*
G01X166107Y377333D02*
X168893Y381000D01*
G01X167500Y381667D02*
Y376667D01*
G01X168893Y377333D02*
X166107Y381000D01*
G01X165600Y379167D02*
X169400D01*
G01X171207Y377333D02*
X173993Y381000D01*
G01X172600Y381667D02*
Y376667D01*
G01X173993Y377333D02*
X171207Y381000D01*
G01X170700Y379167D02*
X174500D01*
G01X161007Y368833D02*
X163793Y372500D01*
G01X162400Y373167D02*
Y368167D01*
G01X163793Y368833D02*
X161007Y372500D01*
G01X160500Y370667D02*
X164300D01*
G01X166107Y368833D02*
X168893Y372500D01*
G01X167500Y373167D02*
Y368167D01*
G01X168893Y368833D02*
X166107Y372500D01*
G01X165600Y370667D02*
X169400D01*
G01X171207Y368833D02*
X173993Y372500D01*
G01X172600Y373167D02*
Y368167D01*
G01X173993Y368833D02*
X171207Y372500D01*
G01X170700Y370667D02*
X174500D01*
G01X200428Y305000D02*
Y301417D01*
X200681Y300666D01*
X201188Y300167D01*
X201821Y300000D01*
X202454Y300167D01*
X202961Y300666D01*
X203214Y301417D01*
Y305000D01*
G01X205716Y304167D02*
X206096Y304667D01*
X206539Y304917D01*
X207046Y305000D01*
X207679Y304833D01*
X208122Y304417D01*
X208249Y303917D01*
X208186Y303416D01*
X207932Y303000D01*
X206666Y302167D01*
X206096Y301583D01*
X205716Y300750D01*
X205590Y300000D01*
X208249D01*
G01X181732Y278996D02*
X198268D01*
Y321004D01*
X181732D01*
Y278996D01*
G01X208843Y382083D02*
X208463Y382333D01*
X208020Y382500D01*
X207513D01*
X206943Y382250D01*
X206500Y381833D01*
X206183Y381333D01*
X205930Y380500D01*
X205867Y379750D01*
X205993Y379000D01*
X206183Y378500D01*
X206563Y378000D01*
X207007Y377667D01*
X207450Y377500D01*
X207893D01*
X208337Y377667D01*
X208717Y377917D01*
X209033Y378250D01*
G01X211157D02*
X211537Y377833D01*
X211980Y377583D01*
X212550Y377500D01*
X213120Y377667D01*
X213563Y378000D01*
X213880Y378583D01*
X213943Y379250D01*
X213817Y379917D01*
X213500Y380333D01*
X213057Y380667D01*
X212613Y380750D01*
X212170Y380667D01*
X211600Y380333D01*
X211790Y382500D01*
X213500D01*
G01X202350Y372500D02*
Y377500D01*
X201590Y376500D01*
G01Y372500D02*
X203110D01*
G01X207450Y377500D02*
X206943Y377333D01*
X206563Y376917D01*
X206310Y376417D01*
X206120Y375750D01*
X206057Y375000D01*
X206120Y374250D01*
X206310Y373583D01*
X206563Y373083D01*
X206943Y372667D01*
X207450Y372500D01*
X207957Y372667D01*
X208337Y373083D01*
X208590Y373583D01*
X208780Y374250D01*
X208843Y375000D01*
X208780Y375750D01*
X208590Y376417D01*
X208337Y376917D01*
X207957Y377333D01*
X207450Y377500D01*
G01X211473Y375833D02*
Y373500D01*
X211727Y372917D01*
X212107Y372583D01*
X212550Y372500D01*
X212993Y372583D01*
X213373Y372917D01*
X213627Y373500D01*
G01Y372500D02*
Y375833D01*
G01X216447Y372500D02*
Y377500D01*
X218853D01*
G01X217967Y375083D02*
X216447D01*
G01X194273Y370000D02*
X196513D01*
G01X195300Y371625D02*
Y368375D01*
G01X232500Y386959D02*
Y385000D01*
X197500D01*
Y386959D01*
G01Y393041D02*
Y395000D01*
X232500D01*
Y393041D01*
G01X228843Y212083D02*
X228463Y212333D01*
X228020Y212500D01*
X227513D01*
X226943Y212250D01*
X226500Y211833D01*
X226183Y211333D01*
X225930Y210500D01*
X225867Y209750D01*
X225993Y209000D01*
X226183Y208500D01*
X226563Y208000D01*
X227007Y207667D01*
X227450Y207500D01*
X227893D01*
X228337Y207667D01*
X228717Y207917D01*
X229033Y208250D01*
G01X232550Y207500D02*
Y212500D01*
X231790Y211500D01*
G01Y207500D02*
X233310D01*
G01X222350Y202500D02*
Y207500D01*
X221590Y206500D01*
G01Y202500D02*
X223110D01*
G01X227450Y207500D02*
X226943Y207333D01*
X226563Y206917D01*
X226310Y206417D01*
X226120Y205750D01*
X226057Y205000D01*
X226120Y204250D01*
X226310Y203583D01*
X226563Y203083D01*
X226943Y202667D01*
X227450Y202500D01*
X227957Y202667D01*
X228337Y203083D01*
X228590Y203583D01*
X228780Y204250D01*
X228843Y205000D01*
X228780Y205750D01*
X228590Y206417D01*
X228337Y206917D01*
X227957Y207333D01*
X227450Y207500D01*
G01X231473Y205833D02*
Y203500D01*
X231727Y202917D01*
X232107Y202583D01*
X232550Y202500D01*
X232993Y202583D01*
X233373Y202917D01*
X233627Y203500D01*
G01Y202500D02*
Y205833D01*
G01X236447Y202500D02*
Y207500D01*
X238853D01*
G01X237967Y205083D02*
X236447D01*
G01X214273Y200000D02*
X216513D01*
G01X215300Y201625D02*
Y198375D01*
G01X217500Y223041D02*
Y225000D01*
X252500D01*
Y223041D01*
G01Y216959D02*
Y215000D01*
X217500D01*
Y216959D01*
G01X221007Y377333D02*
X223793Y381000D01*
G01X222400Y381667D02*
Y376667D01*
G01X223793Y377333D02*
X221007Y381000D01*
G01X220500Y379167D02*
X224300D01*
G01X226107Y377333D02*
X228893Y381000D01*
G01X227500Y381667D02*
Y376667D01*
G01X228893Y377333D02*
X226107Y381000D01*
G01X225600Y379167D02*
X229400D01*
G01X231207Y377333D02*
X233993Y381000D01*
G01X232600Y381667D02*
Y376667D01*
G01X233993Y377333D02*
X231207Y381000D01*
G01X230700Y379167D02*
X234500D01*
G01X221007Y368833D02*
X223793Y372500D01*
G01X222400Y373167D02*
Y368167D01*
G01X223793Y368833D02*
X221007Y372500D01*
G01X220500Y370667D02*
X224300D01*
G01X226107Y368833D02*
X228893Y372500D01*
G01X227500Y373167D02*
Y368167D01*
G01X228893Y368833D02*
X226107Y372500D01*
G01X225600Y370667D02*
X229400D01*
G01X231207Y368833D02*
X233993Y372500D01*
G01X232600Y373167D02*
Y368167D01*
G01X233993Y368833D02*
X231207Y372500D01*
G01X230700Y370667D02*
X234500D01*
G01X241007Y207333D02*
X243793Y211000D01*
G01X242400Y211667D02*
Y206667D01*
G01X243793Y207333D02*
X241007Y211000D01*
G01X240500Y209167D02*
X244300D01*
G01X246107Y207333D02*
X248893Y211000D01*
G01X247500Y211667D02*
Y206667D01*
G01X248893Y207333D02*
X246107Y211000D01*
G01X245600Y209167D02*
X249400D01*
G01X251207Y207333D02*
X253993Y211000D01*
G01X252600Y211667D02*
Y206667D01*
G01X253993Y207333D02*
X251207Y211000D01*
G01X250700Y209167D02*
X254500D01*
G01X241007Y198833D02*
X243793Y202500D01*
G01X242400Y203167D02*
Y198167D01*
G01X243793Y198833D02*
X241007Y202500D01*
G01X240500Y200667D02*
X244300D01*
G01X246107Y198833D02*
X248893Y202500D01*
G01X247500Y203167D02*
Y198167D01*
G01X248893Y198833D02*
X246107Y202500D01*
G01X245600Y200667D02*
X249400D01*
G01X251207Y198833D02*
X253993Y202500D01*
G01X252600Y203167D02*
Y198167D01*
G01X253993Y198833D02*
X251207Y202500D01*
G01X250700Y200667D02*
X254500D01*
G01X251732Y288996D02*
X268268D01*
Y331004D01*
X251732D01*
Y288996D01*
G01X270428Y315000D02*
Y311417D01*
X270681Y310666D01*
X271188Y310167D01*
X271821Y310000D01*
X272454Y310167D01*
X272961Y310666D01*
X273214Y311417D01*
Y315000D01*
G01X276919Y310000D02*
Y315000D01*
X276159Y314000D01*
G01Y310000D02*
X277679D01*
G01X300560Y262500D02*
Y267500D01*
X298217Y263917D01*
X301383D01*
G01X304900Y262333D02*
X304773Y262417D01*
Y262583D01*
X304900Y262667D01*
X305027Y262583D01*
Y262417D01*
X304900Y262333D01*
G01X309873Y262500D02*
X310000Y263583D01*
X310190Y264500D01*
X310443Y265333D01*
X310760Y266250D01*
X311267Y267500D01*
X308733D01*
G01X314023Y265833D02*
Y263500D01*
X314277Y262917D01*
X314657Y262583D01*
X315100Y262500D01*
X315543Y262583D01*
X315923Y262917D01*
X316177Y263500D01*
G01Y262500D02*
Y265833D01*
G01X318997Y262500D02*
Y267500D01*
X321403D01*
G01X320517Y265083D02*
X318997D01*
G01X297500Y283041D02*
Y285000D01*
X332500D01*
Y283041D01*
G01Y276959D02*
Y275000D01*
X297500D01*
Y276959D01*
G01X300560Y312500D02*
Y317500D01*
X298217Y313917D01*
X301383D01*
G01X304900Y312333D02*
X304773Y312417D01*
Y312583D01*
X304900Y312667D01*
X305027Y312583D01*
Y312417D01*
X304900Y312333D01*
G01X309873Y312500D02*
X310000Y313583D01*
X310190Y314500D01*
X310443Y315333D01*
X310760Y316250D01*
X311267Y317500D01*
X308733D01*
G01X314023Y315833D02*
Y313500D01*
X314277Y312917D01*
X314657Y312583D01*
X315100Y312500D01*
X315543Y312583D01*
X315923Y312917D01*
X316177Y313500D01*
G01Y312500D02*
Y315833D01*
G01X318997Y312500D02*
Y317500D01*
X321403D01*
G01X320517Y315083D02*
X318997D01*
G01X332500Y326959D02*
Y325000D01*
X297500D01*
Y326959D01*
G01Y333041D02*
Y335000D01*
X332500D01*
Y333041D01*
G01X308843Y272083D02*
X308463Y272333D01*
X308020Y272500D01*
X307513D01*
X306943Y272250D01*
X306500Y271833D01*
X306183Y271333D01*
X305930Y270500D01*
X305867Y269750D01*
X305993Y269000D01*
X306183Y268500D01*
X306563Y268000D01*
X307007Y267667D01*
X307450Y267500D01*
X307893D01*
X308337Y267667D01*
X308717Y267917D01*
X309033Y268250D01*
G01X313310Y267500D02*
Y272500D01*
X310967Y268917D01*
X314133D01*
G01X325667Y272160D02*
X329333Y269373D01*
G01X330000Y270767D02*
X325000D01*
G01X325667Y269373D02*
X329333Y272160D01*
G01X327500Y272667D02*
Y268867D01*
G01X325667Y267060D02*
X329333Y264273D01*
G01X330000Y265667D02*
X325000D01*
G01X325667Y264273D02*
X329333Y267060D01*
G01X327500Y267567D02*
Y263767D01*
G01X325667Y261960D02*
X329333Y259173D01*
G01X330000Y260567D02*
X325000D01*
G01X325667Y259173D02*
X329333Y261960D01*
G01X327500Y262467D02*
Y258667D01*
G01X308843Y322083D02*
X308463Y322333D01*
X308020Y322500D01*
X307513D01*
X306943Y322250D01*
X306500Y321833D01*
X306183Y321333D01*
X305930Y320500D01*
X305867Y319750D01*
X305993Y319000D01*
X306183Y318500D01*
X306563Y318000D01*
X307007Y317667D01*
X307450Y317500D01*
X307893D01*
X308337Y317667D01*
X308717Y317917D01*
X309033Y318250D01*
G01X311157Y318500D02*
X311537Y317917D01*
X312043Y317583D01*
X312613Y317500D01*
X313120Y317583D01*
X313627Y318000D01*
X313943Y318500D01*
X314007Y319000D01*
X313880Y319583D01*
X313437Y320000D01*
X312993Y320167D01*
X312423D01*
G01X312993D02*
X313373Y320417D01*
X313690Y320833D01*
X313817Y321333D01*
X313690Y321833D01*
X313373Y322250D01*
X312803Y322500D01*
X312233Y322417D01*
X311663Y322083D01*
G01X325667Y322160D02*
X329333Y319373D01*
G01X330000Y320767D02*
X325000D01*
G01X325667Y319373D02*
X329333Y322160D01*
G01X327500Y322667D02*
Y318867D01*
G01X325667Y317060D02*
X329333Y314273D01*
G01X330000Y315667D02*
X325000D01*
G01X325667Y314273D02*
X329333Y317060D01*
G01X327500Y317567D02*
Y313767D01*
G01X325667Y311960D02*
X329333Y309173D01*
G01X330000Y310567D02*
X325000D01*
G01X325667Y309173D02*
X329333Y311960D01*
G01X327500Y312467D02*
Y308667D01*
G01X323000Y370000D02*
Y378000D01*
X321800Y376400D01*
G01Y370000D02*
X324200D01*
G01X329100Y376667D02*
X329700Y377466D01*
X330400Y377867D01*
X331200Y378000D01*
X332200Y377733D01*
X332900Y377067D01*
X333100Y376267D01*
X333000Y375466D01*
X332600Y374800D01*
X330600Y373467D01*
X329700Y372533D01*
X329100Y371200D01*
X328900Y370000D01*
X333100D01*
G01X336500Y378000D02*
X339000Y370000D01*
X341500Y378000D01*
G01X332667Y263660D02*
X336333Y260873D01*
G01X337000Y262267D02*
X332000D01*
G01X332667Y260873D02*
X336333Y263660D01*
G01X334500Y264167D02*
Y260367D01*
G01X332667Y258560D02*
X336333Y255773D01*
G01X337000Y257167D02*
X332000D01*
G01X332667Y255773D02*
X336333Y258560D01*
G01X334500Y259067D02*
Y255267D01*
G01X332667Y253460D02*
X336333Y250673D01*
G01X337000Y252067D02*
X332000D01*
G01X332667Y250673D02*
X336333Y253460D01*
G01X334500Y253967D02*
Y250167D01*
G01X332667Y313660D02*
X336333Y310873D01*
G01X337000Y312267D02*
X332000D01*
G01X332667Y310873D02*
X336333Y313660D01*
G01X334500Y314167D02*
Y310367D01*
G01X332667Y308560D02*
X336333Y305773D01*
G01X337000Y307167D02*
X332000D01*
G01X332667Y305773D02*
X336333Y308560D01*
G01X334500Y309067D02*
Y305267D01*
G01X332667Y303460D02*
X336333Y300673D01*
G01X337000Y302067D02*
X332000D01*
G01X332667Y300673D02*
X336333Y303460D01*
G01X334500Y303967D02*
Y300167D01*
G01X380167Y110507D02*
X376500Y113293D01*
G01X375833Y111900D02*
X380833D01*
G01X380167Y113293D02*
X376500Y110507D01*
G01X378333Y110000D02*
Y113800D01*
G01X370800Y371200D02*
X371400Y370533D01*
X372100Y370133D01*
X373000Y370000D01*
X373900Y370267D01*
X374600Y370800D01*
X375100Y371733D01*
X375200Y372800D01*
X375000Y373867D01*
X374500Y374533D01*
X373800Y375067D01*
X373100Y375200D01*
X372400Y375067D01*
X371500Y374533D01*
X371800Y378000D01*
X374500D01*
G01X378500D02*
X381000Y370000D01*
X383500Y378000D01*
G01X401700Y372667D02*
X404300D01*
G01X408800Y371200D02*
X409400Y370533D01*
X410100Y370133D01*
X411000Y370000D01*
X411900Y370267D01*
X412600Y370800D01*
X413100Y371733D01*
X413200Y372800D01*
X413000Y373867D01*
X412500Y374533D01*
X411800Y375067D01*
X411100Y375200D01*
X410400Y375067D01*
X409500Y374533D01*
X409800Y378000D01*
X412500D01*
G01X416500D02*
X419000Y370000D01*
X421500Y378000D01*
G01X443000D02*
X442200Y377733D01*
X441600Y377067D01*
X441200Y376267D01*
X440900Y375200D01*
X440800Y374000D01*
X440900Y372800D01*
X441200Y371733D01*
X441600Y370933D01*
X442200Y370267D01*
X443000Y370000D01*
X443800Y370267D01*
X444400Y370933D01*
X444800Y371733D01*
X445100Y372800D01*
X445200Y374000D01*
X445100Y375200D01*
X444800Y376267D01*
X444400Y377067D01*
X443800Y377733D01*
X443000Y378000D01*
M02*
