G04 ================== begin FILE IDENTIFICATION RECORD ==================*
G04 Layout Name:  C:/ORCAD/PROJECTS/TRS80_POWER/allegro/TRS80_POWER2.brd*
G04 Film Name:    TOP*
G04 File Format:  Gerber RS274X*
G04 File Origin:  Cadence Allegro 16.6-S021*
G04 Origin Date:  Thu Jul 10 10:32:45 2014*
G04 *
G04 Layer:  VIA CLASS/TOP*
G04 Layer:  PIN/TOP*
G04 Layer:  ETCH/TOP*
G04 *
G04 Offset:    (0.000 0.000)*
G04 Mirror:    No*
G04 Mode:      Positive*
G04 Rotation:  0*
G04 FullContactRelief:  No*
G04 UndefLineWidth:     0.000*
G04 ================== end FILE IDENTIFICATION RECORD ====================*
%FSLAX25Y25*MOIN*%
%IR0*IPPOS*OFA0.00000B0.00000*MIA0B0*SFA1.00000B1.00000*%
%ADD15O,.098429X.07874*%
%ADD13C,.2*%
%ADD10C,.271654*%
%ADD14C,.137799*%
%ADD11R,.15748X.07874*%
%ADD19R,.07874X.15748*%
%ADD12R,.15X.1*%
%ADD17C,.068902*%
%ADD16C,.07874*%
%ADD18R,.068902X.068902*%
%ADD20C,.045*%
G75*
%LPD*%
G75*
G54D10*
X15748Y15748D03*
Y389764D03*
X547244Y15748D03*
X549685Y388110D03*
G54D20*
G01X49213Y29528D02*
X59055Y19685D01*
X509842D01*
X519684Y29528D01*
Y31339D01*
G01X90000Y30000D02*
X90472Y29528D01*
X116142D01*
X120079Y33464D01*
X435038D01*
X464566Y62992D01*
Y80551D01*
G01X90551Y61024D02*
X125984D01*
X146036Y40972D01*
X422861D01*
X426043Y44154D01*
Y205008D01*
X430543Y209508D01*
X464567D01*
G01X486220Y153701D02*
X486062Y153543D01*
X451507D01*
X447007Y149043D01*
Y85051D01*
X451507Y80551D01*
X464566D01*
G01X486220Y31339D02*
X486377Y31496D01*
X497468D01*
X501968Y35996D01*
Y78740D01*
X490156Y90551D01*
X464566D01*
G01X464567Y209508D02*
X466627Y207447D01*
X488943D01*
X492125Y210630D01*
G01Y291338D02*
X479467Y303996D01*
X464567D01*
G01X517716Y198661D02*
X517558Y198818D01*
X499999D01*
X492125Y206693D01*
Y210630D01*
G01D02*
Y291338D01*
G01X519684Y291180D02*
X519526Y291338D01*
X492125D01*
G01X519684Y31339D02*
X529369D01*
X537400Y39370D01*
Y82520D01*
G54D11*
X49213Y29528D03*
Y61024D03*
X90000Y30000D03*
X90551Y61024D03*
G54D12*
X54024Y173905D03*
Y198905D03*
Y228905D03*
Y253905D03*
G54D13*
X53150Y291338D03*
X96457D03*
G54D14*
X191417Y96654D03*
Y156654D03*
Y186654D03*
Y246654D03*
X381417Y96654D03*
Y156654D03*
Y186654D03*
Y246654D03*
G54D15*
X187008Y352362D03*
X226378D03*
X206693D03*
X246063D03*
G54D16*
X326771Y334251D03*
Y374409D03*
X433070Y342519D03*
Y372519D03*
X486220Y31339D03*
Y41338D03*
Y143700D03*
Y153701D03*
X519684Y31339D03*
Y41338D03*
X513778Y143700D03*
Y153701D03*
X517716Y198661D03*
Y208661D03*
Y226220D03*
Y236220D03*
X519684Y291180D03*
Y301180D03*
Y320708D03*
Y330708D03*
G54D17*
X464566Y80551D03*
Y90551D03*
X464567Y209508D03*
Y219508D03*
Y303996D03*
Y313996D03*
X537400Y82520D03*
Y92520D03*
G54D18*
X464566Y100551D03*
X464567Y229508D03*
Y323996D03*
X537400Y102519D03*
G54D19*
X503936Y372047D03*
X523621D03*
M02*
