M48
INCH,LZ
T01C.03937
T02C.043311
T03C.065
T04C.174
T05C.23622
;LEADER: 12 
;HEADER: 
;CODE  : ASCII 
;FILE  : TRS80_POWER-1-2.drl for  ... layers TOP and BOTTOM
;T01 Holesize 1. = 39.370000 Tolerance = +0.000000/-0.000000 PLATED MILS Quantity = 24
;T02 Holesize 2. = 43.311000 Tolerance = +0.000000/-0.000000 PLATED MILS Quantity = 9
;T03 Holesize 3. = 65.000000 Tolerance = +0.000000/-0.000000 PLATED MILS Quantity = 8
;T04 Holesize 4. = 174.000000 Tolerance = +0.000000/-0.000000 PLATED MILS Quantity = 4
%
G90
T01
X004Y029
X007Y029
X004Y035
X007Y035
X017Y039
X014Y039
X017Y022
X014Y022
X025Y022
X022Y022
X023Y039
X02Y039
X03Y033
X033Y033
X03Y028
X033Y028
X0474724Y0134173
X0445367Y0134173
X041912Y0134173
X0392874Y0134173
X0474724Y0340472
X0445367Y0340472
X041912Y0340472
X0392874Y0340472
T02
X012Y031
R02Y-001
X019Y031
R02Y-001
X026Y032
R02Y-001
T03
X035Y039
X038Y002
X039Y039
R02X003
X054Y012
X054Y008
X047Y002
T04
X0019094Y0027362
X0019094Y0403543
X0551772Y0027362
X0551772Y0403543
M30
