M48
INCH
T01C.03937
;EXTENTS: -1.000  -1.000  33.000  21.000  
;LEADER: 12 
;HEADER: 
;CODE  : ASCII 
;FILE  : C:/ORCAD/PROJECTS/TRS80_POWER/allegro/TRS80_POWER2.rou for board #Taaaaaw07120.tmp
%
G90
F1
M16
T01
M16
G00X0523621Y0367125
G40
M15
G01X0523621Y0369094
M16
G00X0503936Y0367125
G40
M15
G01X0503936Y0369094
M16
G00X0093504Y0061023
G40
M15
G01X0095472Y0061023
M16
G00X0092953Y0030000
G40
M15
G01X0094921Y0030000
M16
G00X0044291Y0029528
G40
M15
G01X0046260Y0029528
M16
G00X0044291Y0061024
G40
M15
G01X0046260Y0061024
M16
G00X0050273Y0255905
G41
M15
G01X0050273Y0251905
G01X0057773Y0251905
G01X0057773Y0255905
G01X0050273Y0255905
M16
G00X0050273Y0230905
G41
M15
G01X0050273Y0226905
G01X0057773Y0226905
G01X0057773Y0230905
G01X0050273Y0230905
M16
G00X0050273Y0200905
G41
M15
G01X0050273Y0196905
G01X0057773Y0196905
G01X0057773Y0200905
G01X0050273Y0200905
M16
G00X0050273Y0175905
G41
M15
G01X0050273Y0171905
G01X0057773Y0171905
G01X0057773Y0175905
G01X0050273Y0175905
M16
G00X0184448Y0353405
G41
M15
G01X0184448Y0351318
G01X0189567Y0351318
G01X0189567Y0353405
G01X0184448Y0353405
M16
G00X0204133Y0353405
G41
M15
G01X0204133Y0351318
G01X0209251Y0351318
G01X0209251Y0353405
G01X0204133Y0353405
M16
G00X0223819Y0353405
G41
M15
G01X0223819Y0351318
G01X0228937Y0351318
G01X0228937Y0353405
G01X0223819Y0353405
M16
G00X0243504Y0353405
G41
M15
G01X0243504Y0351318
G01X0248622Y0351318
G01X0248622Y0353405
G01X0243504Y0353405
M16
G40
M30
