M48
INCH,LZ
T01C.03937
T02C.043311
T03C.059059
T04C.065
T05C.174
;LEADER: 12 
;HEADER: 
;CODE  : ASCII 
;FILE  : TRS80_POWER2-1-2.drl for  ... layers TOP and BOTTOM
;T01 Holesize 1. = 39.370000 Tolerance = +0.000000/-0.000000 PLATED MILS Quantity = 20
;T02 Holesize 2. = 43.311000 Tolerance = +0.000000/-0.000000 PLATED MILS Quantity = 12
;T03 Holesize 3. = 59.059000 Tolerance = +3.941000/-3.941000 PLATED MILS Quantity = 8
;T04 Holesize 4. = 65.000000 Tolerance = +0.000000/-0.000000 PLATED MILS Quantity = 2
;T05 Holesize 5. = 174.000000 Tolerance = +0.000000/-0.000000 PLATED MILS Quantity = 4
%
G90
T01
X0326771Y0334251
X0326771Y0374409
X043307Y0342519
X043307Y0372519
X0519684Y0330708
X0519684Y0320708
X0519684Y030118
X0519684Y029118
X0517716Y023622
X0517716Y022622
X048622Y01437
X048622Y0153701
X0517716Y0208661
X0517716Y0198661
X0513778Y01437
X0513778Y0153701
X048622Y0041338
X048622Y0031339
X0519684Y0041338
X0519684Y0031339
T02
X0464567Y0323996
R02Y-001
X0464567Y0229508
R02Y-001
X0537401Y0102519
R02Y-001
X0464566Y0100551
R02Y-001
T03
X0191417Y0096654
X0191417Y0156654
X0191417Y0186654
X0191417Y0246654
X0381417Y0096654
X0381417Y0156654
X0381417Y0186654
X0381417Y0246654
T04
X005315Y0291338
X0096457Y0291338
T05
X0015748Y0015748
X0015748Y0389764
X0549685Y038811
X0547244Y0015748
M30
